<svg width="374" height="229" fill="none" xmlns="http://www.w3.org/2000/svg"><path d="M30 10c0-5.523 4.477-10 10-10h293c5.523 0 10 4.477 10 10v194H30V10Z" fill="#20204A"/><path d="M40 10h293v173H40V10Z" fill="#DADADA"/><path d="M0 202h373v3c0 9.941-8.059 18-18 18H18c-9.941 0-18-8.059-18-18v-3Z" fill="#151540"/><circle cx="187" cy="5" r="3" fill="#5757BC"/><circle cx="187" cy="5" r="1" fill="#0F0F59"/><path d="M16.064 223h341.37L374 229H0l16.064-6Z" fill="#000" fill-opacity=".24"/><path d="M16.064 223h341.37L374 229H0l16.064-6Z" fill="url(#a)"/><rect x="57" y="26" width="259" height="141" rx="7" fill="#fff"/><path d="M57 33a7 7 0 0 1 7-7h245a7 7 0 0 1 7 7H57Z" fill="#EF6302"/><mask id="b" fill="#fff"><path fill-rule="evenodd" clip-rule="evenodd" d="M75.842 59.843c1.311-3.127 3.963-5.265 7.02-5.265 3.053 0 5.701 2.133 7.014 5.253C88.095 61.786 85.606 63 82.854 63c-2.748 0-5.231-1.209-7.012-3.157Z"/></mask><path d="m75.842 59.843-1.844-.774-.495 1.18.863.943 1.476-1.35Zm14.034-.012 1.478 1.347.861-.944-.495-1.178-1.844.775Zm-7.014-7.253c-4.065 0-7.328 2.828-8.864 6.491l3.689 1.547c1.085-2.59 3.125-4.038 5.175-4.038v-4Zm8.858 6.478c-1.539-3.657-4.799-6.478-8.858-6.478v4c2.046 0 4.084 1.445 5.17 4.029l3.688-1.551Zm-3.322-.572C86.964 60.058 84.998 61 82.854 61v4c3.36 0 6.372-1.486 8.5-3.822l-2.956-2.694ZM82.854 61c-2.14 0-4.102-.938-5.536-2.507l-2.952 2.7C76.494 63.52 79.499 65 82.854 65v-4Z" fill="#EF6302" mask="url(#b)"/><path d="M85.992 49.273c0 1.96-1.468 3.43-3.138 3.43s-3.138-1.47-3.138-3.43c0-1.959 1.468-3.43 3.138-3.43s3.138 1.471 3.138 3.43Z" stroke="#EF6302" stroke-width="2"/><rect x="163" y="56" width="78" height="84" rx="4" fill="#D1D1D1"/><rect x="133" y="66" width="78" height="84" rx="4" fill="#EAEAEA"/><circle cx="146" cy="80" r="5" fill="#EF6302"/><circle cx="65.5" cy="29.5" r="1.5" fill="#fff"/><circle cx="65.5" cy="29.5" r="1.5" fill="#fff"/><circle cx="72.5" cy="29.5" r="1.5" fill="#fff"/><circle cx="72.5" cy="29.5" r="1.5" fill="#fff"/><circle cx="79.5" cy="29.5" r="1.5" fill="#fff"/><circle cx="79.5" cy="29.5" r="1.5" fill="#fff"/><path fill="#EF6302" d="M143 98h42v2h-42zM143 106h24v2h-24zM163 130h17v6h-17zM68 78h29v2H68zM68 82h29v2H68zM68 86h19v2H68zM252 108a5 5 0 0 1 5-5h41a5 5 0 0 1 5 5v1h-51v-1Z"/><path fill="#EAEAEA" d="M252 109h51v58h-51z"/><rect x="255" y="117" width="27" height="6" rx="3" fill="#C4C4C4"/><rect x="255" y="117" width="27" height="6" rx="2" fill="#C4C4C4"/><rect x="255" y="140" width="11" height="6" rx="2" fill="#C4C4C4"/><rect x="255" y="151" width="23" height="6" rx="2" fill="#C4C4C4"/><rect x="283" y="128" width="17" height="6" rx="2" fill="#DADADA"/><path d="M332.5 10H91l205.5 172.5h36V10Z" fill="url(#c)"/><defs><linearGradient id="a" x1="195.785" y1="223" x2="195.785" y2="229" gradientUnits="userSpaceOnUse"><stop stop-opacity=".2"/><stop offset="1" stop-color="#fff" stop-opacity="0"/></linearGradient><linearGradient id="c" x1="305" y1="3.5" x2="254.5" y2="153" gradientUnits="userSpaceOnUse"><stop stop-color="#fff"/><stop offset="1" stop-color="#F1EBEB" stop-opacity="0"/></linearGradient></defs></svg>