<svg width="664" height="277" fill="none" xmlns="http://www.w3.org/2000/svg"><path d="M174 10c0-5.523 4.477-10 10-10h293c5.523 0 10 4.477 10 10v192H174V10Z" fill="#20204A"/><path d="M184 10h293v173H184V10Z" fill="#DADADA"/><path d="M144 202h373v3c0 9.941-8.059 18-18 18H162c-9.941 0-18-8.059-18-18v-3Z" fill="#151540"/><circle cx="331" cy="5" r="3" fill="#5757BC"/><circle cx="331" cy="5" r="1" fill="#0F0F59"/><path d="M152 229h360.5L664 277H0l152-48Z" fill="url(#a)"/><rect x="201" y="26" width="259" height="141" rx="7" fill="#fff"/><mask id="b" fill="#fff"><path fill-rule="evenodd" clip-rule="evenodd" d="M220.842 59.843c1.311-3.127 3.963-5.265 7.02-5.265 3.053 0 5.701 2.133 7.014 5.253-1.781 1.955-4.269 3.169-7.022 3.169-2.748 0-5.231-1.209-7.012-3.157Z"/></mask><path d="m220.842 59.843-1.844-.774-.495 1.18.863.943 1.476-1.35Zm14.034-.012 1.478 1.347.861-.944-.495-1.178-1.844.775Zm-7.014-7.253c-4.065 0-7.328 2.828-8.864 6.491l3.689 1.547c1.086-2.59 3.125-4.038 5.175-4.038v-4Zm8.858 6.478c-1.539-3.657-4.799-6.478-8.858-6.478v4c2.046 0 4.084 1.445 5.171 4.029l3.687-1.551Zm-3.322-.572c-1.434 1.574-3.4 2.516-5.544 2.516v4c3.361 0 6.372-1.486 8.5-3.822l-2.956-2.694ZM227.854 61c-2.141 0-4.102-.938-5.536-2.507l-2.952 2.7C221.494 63.52 224.5 65 227.854 65v-4Z" fill="#FFA060" mask="url(#b)"/><path d="M230.992 49.273c0 1.96-1.468 3.43-3.138 3.43s-3.138-1.47-3.138-3.43c0-1.959 1.468-3.43 3.138-3.43s3.138 1.471 3.138 3.43Z" stroke="#FFA060" stroke-width="2"/><path d="M201 33a7 7 0 0 1 7-7h245a7 7 0 0 1 7 7H201Z" fill="#F9914A"/><path d="M160 223h342l9.5 5h-361l9.5-5Z" fill="#000"/><path d="M160 223h342l9.5 5h-361l9.5-5Z" fill="#000"/><rect x="308" y="56" width="78" height="84" rx="4" fill="#D1D1D1"/><rect x="278" y="66" width="78" height="84" rx="4" fill="#EAEAEA"/><circle cx="291" cy="80" r="5" fill="#F9914A"/><path fill="#F9914A" d="M288 98h42v2h-42zM288 106h24v2h-24zM308 130h17v6h-17zM213 78h29v2h-29zM213 82h29v2h-29zM213 86h19v2h-19z"/><circle cx="210.5" cy="29.5" r="1.5" fill="#fff"/><circle cx="210.5" cy="29.5" r="1.5" fill="#fff"/><circle cx="217.5" cy="29.5" r="1.5" fill="#fff"/><circle cx="217.5" cy="29.5" r="1.5" fill="#fff"/><circle cx="224.5" cy="29.5" r="1.5" fill="#fff"/><circle cx="224.5" cy="29.5" r="1.5" fill="#fff"/><path d="M397 108a5 5 0 0 1 5-5h41a5 5 0 0 1 5 5v1h-51v-1Z" fill="#F9914A"/><path fill="#EAEAEA" d="M397 109h51v58h-51z"/><rect x="400" y="117" width="27" height="6" rx="3" fill="#C4C4C4"/><rect x="400" y="117" width="27" height="6" rx="2" fill="#C4C4C4"/><rect x="400" y="140" width="11" height="6" rx="2" fill="#C4C4C4"/><rect x="400" y="151" width="23" height="6" rx="2" fill="#C4C4C4"/><rect x="428" y="128" width="17" height="6" rx="2" fill="#DADADA"/><defs><linearGradient id="a" x1="332" y1="229" x2="332" y2="269" gradientUnits="userSpaceOnUse"><stop stop-color="#fff" stop-opacity=".15"/><stop offset="1" stop-color="#C4C4C4" stop-opacity="0"/></linearGradient></defs></svg>