<svg width="172" height="66" fill="none" xmlns="http://www.w3.org/2000/svg"><path d="M19.785 26.289H6.663v-5.276h12.654v-4.107H6.663v-5.375h13.122V7.257H2.289v23.372h17.496v-4.34ZM20.345 56.692v-8.648h11.72V43.97h-11.72v-6.377h12.388v-4.24H15.938v23.339h4.407ZM61.573 56.391l-7.078-7.98c4.44-.901 5.91-4.14 5.91-7.346 0-4.04-2.905-7.713-8.415-7.746-3.706 0-7.412-.033-11.118-.033v23.406h4.407v-7.813h4.24l6.812 7.813h5.242v-.3ZM51.99 37.426c2.772 0 4.007 1.87 4.007 3.74s-1.202 3.74-4.007 3.74h-6.71v-7.48h6.71ZM106.969 47.81 95.516 33.319h-3.573v23.373h4.408v-15.76l12.287 15.793v-.033h2.738V33.286h-4.407V47.81ZM137.987 50.715c-1.536 1.536-3.84 2.37-5.877 2.37-5.776 0-8.013-4.04-8.047-7.913-.033-3.906 2.404-8.113 8.047-8.113 2.037 0 4.107.7 5.643 2.203l2.938-2.838c-2.404-2.37-5.409-3.572-8.581-3.572-8.447 0-12.421 6.21-12.387 12.32.033 6.077 3.706 12.054 12.387 12.054 3.373 0 6.478-1.102 8.882-3.473l-3.005-3.038ZM159.187 32.852c-8.081 0-12.021 6.177-12.021 12.32 0 6.144 3.807 12.054 12.021 12.054 8.213 0 11.92-6.044 11.986-12.087.067-6.11-3.94-12.288-11.986-12.288Zm0 4.006c5.509 0 7.713 4.408 7.646 8.348-.067 3.84-2.137 7.98-7.646 7.98-5.51 0-7.58-4.107-7.68-7.947-.1-3.94 2.17-8.38 7.68-8.38ZM31.317 7.257h-9.182v23.372h9.182c8.18 0 11.786-5.976 11.686-11.886-.1-5.777-3.673-11.486-11.686-11.486Zm-4.808 4.174h4.808c5.075 0 7.212 3.639 7.312 7.278.1 3.807-2.003 7.68-7.312 7.68h-4.808V11.43ZM59.906 7.29v13.39c0 4.006-2.07 6.444-5.71 6.444s-6.043-2.238-6.043-6.445V7.29h-4.374v13.39c0 7.044 4.774 10.45 10.384 10.45 5.876 0 10.117-3.539 10.117-10.45V7.29h-4.374ZM109.787 30.329l-7.079-7.98c4.441-.902 5.91-4.14 5.91-7.346 0-4.04-2.904-7.713-8.414-7.746-3.706 0-7.412-.034-11.118-.034V30.63h4.407v-7.813h4.24l6.812 7.813h5.242v-.3Zm-9.583-18.965c2.772 0 4.007 1.87 4.007 3.74s-1.202 3.739-4.007 3.739h-6.711v-7.48h6.711ZM120.217 7.257h-9.182v23.372h9.182c8.181 0 11.787-5.976 11.687-11.886-.1-5.777-3.673-11.486-11.687-11.486Zm-4.808 4.174h4.808c5.076 0 7.213 3.639 7.313 7.278.1 3.807-2.004 7.68-7.313 7.68h-4.808V11.43ZM145.605 6.79c-8.081 0-12.021 6.176-12.021 12.32s3.807 12.054 12.021 12.054c8.213 0 11.92-6.044 11.986-12.087.067-6.11-3.94-12.288-11.986-12.288Zm0 4.006c5.509 0 7.712 4.407 7.646 8.347-.067 3.84-2.137 7.98-7.646 7.98-5.51 0-7.58-4.107-7.68-7.946-.1-3.94 2.17-8.381 7.68-8.381ZM63.445 31.681h4.942l7.078-18.197L82.51 31.68h4.942L77.736 8.208H73.16l-9.716 23.473ZM87.526 33.54h-4.941l-7.079 18.198-7.045-18.198h-4.942l9.717 23.473h4.574l9.716-23.473Z" fill="#1A1A3D"/></svg>